<svg width="76" height="75" viewBox="0 0 76 75" fill="none" xmlns="http://www.w3.org/2000/svg">
<circle cx="38.3928" cy="37.5" r="35" stroke="#48483A" stroke-width="5"/>
<path d="M38.3968 29.2165C33.0761 29.2165 28.7844 33.517 28.7844 38.8488C28.7844 44.1805 33.0761 48.4811 38.3968 48.4811C43.7175 48.4811 48.0092 44.1805 48.0092 38.8488C48.0092 33.517 43.7175 29.2165 38.3968 29.2165ZM38.3968 45.111C34.9584 45.111 32.1475 42.3027 32.1475 38.8488C32.1475 35.3949 34.95 32.5865 38.3968 32.5865C41.8435 32.5865 44.6461 35.3949 44.6461 38.8488C44.6461 42.3027 41.8352 45.111 38.3968 45.111ZM50.6444 28.8224C50.6444 30.0715 49.6405 31.0692 48.4024 31.0692C47.1558 31.0692 46.1603 30.0632 46.1603 28.8224C46.1603 27.5817 47.1642 26.5757 48.4024 26.5757C49.6405 26.5757 50.6444 27.5817 50.6444 28.8224ZM57.0109 31.1027C56.8686 28.0931 56.1826 25.4272 53.9824 23.2308C51.7905 21.0344 49.1302 20.347 46.1268 20.1961C43.0315 20.0201 33.7537 20.0201 30.6583 20.1961C27.6634 20.3386 25.003 21.0261 22.8028 23.2225C20.6026 25.4189 19.9249 28.0847 19.7743 31.0943C19.5987 34.1961 19.5987 43.4931 19.7743 46.5949C19.9166 49.6044 20.6026 52.2703 22.8028 54.4667C25.003 56.6631 27.655 57.3505 30.6583 57.5014C33.7537 57.6775 43.0315 57.6775 46.1268 57.5014C49.1302 57.3589 51.7905 56.6715 53.9824 54.4667C56.1743 52.2703 56.8603 49.6044 57.0109 46.5949C57.1865 43.4931 57.1865 34.2045 57.0109 31.1027ZM53.012 49.923C52.3594 51.5661 51.0962 52.832 49.4481 53.4942C46.9802 54.4751 41.1241 54.2487 38.3968 54.2487C35.6695 54.2487 29.805 54.4667 27.3455 53.4942C25.7057 52.8404 24.4425 51.5745 23.7816 49.923C22.8028 47.4499 23.0287 41.5817 23.0287 38.8488C23.0287 36.1158 22.8112 30.2392 23.7816 27.7745C24.4341 26.1314 25.6974 24.8656 27.3455 24.2033C29.8134 23.2225 35.6695 23.4488 38.3968 23.4488C41.1241 23.4488 46.9885 23.2308 49.4481 24.2033C51.0878 24.8572 52.3511 26.1231 53.012 27.7745C53.9908 30.2476 53.7649 36.1158 53.7649 38.8488C53.7649 41.5817 53.9908 47.4583 53.012 49.923Z" fill="#48483A"/>
</svg>
