<svg width="75" height="75" viewBox="0 0 75 75" fill="none" xmlns="http://www.w3.org/2000/svg">
<path d="M52.3954 27.927C52.4192 28.3379 52.4192 28.7489 52.4192 29.1598C52.4192 41.6926 44.6861 56.1334 30.5521 56.1334C26.1977 56.1334 22.1526 54.5777 18.75 51.8775C19.3687 51.9655 19.9635 51.9949 20.606 51.9949C24.1989 51.9949 27.5064 50.498 30.1476 47.9445C26.7687 47.8564 23.9372 45.1268 22.9616 41.3698C23.4375 41.4578 23.9134 41.5165 24.4131 41.5165C25.1031 41.5165 25.7932 41.3991 26.4356 41.1937C22.9141 40.3131 20.2728 36.4975 20.2728 31.8894V31.772C21.2959 32.4765 22.4857 32.9167 23.7468 32.9754C21.6766 31.273 20.3204 28.3672 20.3204 25.0799C20.3204 23.3189 20.701 21.7046 21.3673 20.2957C25.1507 26.0485 30.8376 29.8054 37.2144 30.2164C37.0955 29.5119 37.0241 28.7782 37.0241 28.0444C37.0241 22.8199 40.4505 18.564 44.7097 18.564C46.9226 18.564 48.9213 19.7087 50.3252 21.5578C52.0622 21.1469 53.7278 20.3544 55.2031 19.2685C54.632 21.4698 53.4185 23.319 51.8243 24.4929C53.3709 24.2876 54.87 23.7591 56.25 23.0254C55.2033 24.9038 53.8945 26.5768 52.3954 27.927Z" fill="#48483A"/>
<circle cx="37.5" cy="37.5" r="35" stroke="#48483A" stroke-width="5"/>
</svg>
